# xmcd
#
# Track frame offsets: 
#        150
#        13583
#        31480
#        46179
#        65752
#        77341
#        90813
#        102631
#        115758
#        130365
#        149165
#        163063
#        172889
#        195613
#        210284
#        231819
#        249363
#        271768
#        311112
#
# Disc length: 4198 seconds
#
# Revision: 2
# Processed by: cddbd v1.5.2PL0 Copyright (c) Steve Scherf et al.
# Submitted via: ExactAudioCopyFreeDBPlugin 1.0
#
DISCID=fc106413
DTITLE=The Electric Flag - An American Music Band - A Long Time Comin'
DTITLE=(1969 and 1968)
DYEAR=2007
DGENRE=Blues
TTITLE0=Soul Searchin'
TTITLE1=Sunny
TTITLE2=With Time There is Change
TTITLE3=Nothing to Do
TTITLE4=See to Your Neighbour
TTITLE5=Qualified
TTITLE6=Hey Little Girl
TTITLE7=Mystery
TTITLE8=My Woman Hangs Around the House
TTITLE9=Killing Floor
TTITLE10=Groovin' is Easy
TTITLE11=Over-Lovin' You
TTITLE12=She Should Have Just
TTITLE13=Wine
TTITLE14=Texas
TTITLE15=Sittin' in Circles
TTITLE16=You Don't Realize
TTITLE17=Another Country
TTITLE18=Easy Rider
EXTD=YEAR: 2007
EXTT0=
EXTT1=
EXTT2=
EXTT3=
EXTT4=
EXTT5=
EXTT6=
EXTT7=
EXTT8=
EXTT9=
EXTT10=
EXTT11=
EXTT12=
EXTT13=
EXTT14=
EXTT15=
EXTT16=
EXTT17=
EXTT18=
PLAYORDER=
